<?xml version="1.0" standalone="no"?><!DOCTYPE svg PUBLIC "-//W3C//DTD SVG 1.1//EN" "http://www.w3.org/Graphics/SVG/1.1/DTD/svg11.dtd"><svg t="1640672305010" class="icon" viewBox="0 0 1102 1024" version="1.1" xmlns="http://www.w3.org/2000/svg" p-id="1720" xmlns:xlink="http://www.w3.org/1999/xlink" width="215.234375" height="200"><defs><style type="text/css"></style></defs><path d="M1064.999385 350.483692H35.603692a18.432 18.432 0 0 0-18.35323 18.51077v92.435692c0 10.24 8.231385 18.510769 18.35323 18.510769h19.613539l32.098461 484.548923c1.969231 29.144615 25.993846 51.790769 55.020308 51.790769h815.931077c29.026462 0 53.090462-22.646154 55.020308-51.790769l32.098461-484.548923h19.613539c10.161231 0 18.392615-8.270769 18.392615-18.510769V368.955077c0-10.200615-8.270769-18.510769-18.392615-18.510769zM293.021538 886.823385c0 20.440615-16.462769 37.021538-36.78523 37.021538a36.864 36.864 0 0 1-36.745846-37.021538v-277.425231c0-20.440615 16.462769-36.982154 36.745846-36.982154 20.322462 0 36.785231 16.541538 36.78523 37.021538v277.385847z m147.02277 0c0 20.440615-16.462769 37.021538-36.745846 37.021538a36.864 36.864 0 0 1-36.785231-37.021538v-277.425231c0-20.440615 16.462769-36.982154 36.785231-36.982154 20.283077 0 36.745846 16.541538 36.745846 37.021538v277.385847z m147.062154 0c0 20.440615-16.462769 37.021538-36.745847 37.021538a36.864 36.864 0 0 1-36.78523-37.021538v-277.425231c0-20.440615 16.462769-36.982154 36.78523-36.982154 20.283077 0 36.745846 16.541538 36.745847 37.021538v277.385847z m147.062153 0c0 20.440615-16.462769 37.021538-36.745846 37.021538a36.864 36.864 0 0 1-36.785231-37.021538v-277.425231c0-20.440615 16.462769-36.982154 36.785231-36.982154 20.283077 0 36.745846 16.541538 36.745846 37.021538v277.385847z m147.062154 0c0 20.440615-16.462769 37.021538-36.785231 37.021538a36.864 36.864 0 0 1-36.745846-37.021538v-277.425231c0-20.440615 16.462769-36.982154 36.745846-36.982154 20.322462 0 36.785231 16.541538 36.785231 37.021538v277.385847z" fill="#0091FF" p-id="1721"></path><path d="M350.72 406.921846a36.627692 36.627692 0 0 0 50.215385-13.508923l183.808-320.354461a37.100308 37.100308 0 0 0-13.430154-50.530462 36.627692 36.627692 0 0 0-50.215385 13.548308L337.250462 356.391385a37.100308 37.100308 0 0 0 13.469538 50.530461z" fill="#707487" p-id="1722"></path><path d="M749.883077 406.921846a36.627692 36.627692 0 0 1-50.215385-13.508923l-183.808-320.354461A37.100308 37.100308 0 0 1 529.329231 22.528a36.627692 36.627692 0 0 1 50.215384 13.548308l183.808 320.315077a37.100308 37.100308 0 0 1-13.469538 50.530461z" fill="#707487" p-id="1723"></path></svg>