<?xml version="1.0" standalone="no"?><!DOCTYPE svg PUBLIC "-//W3C//DTD SVG 1.1//EN" "http://www.w3.org/Graphics/SVG/1.1/DTD/svg11.dtd"><svg t="1641615523295" class="icon" viewBox="0 0 1024 1024" version="1.1" xmlns="http://www.w3.org/2000/svg" p-id="1395" xmlns:xlink="http://www.w3.org/1999/xlink" width="200" height="200"><defs><style type="text/css"></style></defs><path d="M544.231075 145.897881c-202.190979 0-366.100072 163.909094-366.100072 366.100072 0 202.195072 163.909094 366.104165 366.100072 366.104165 202.195072 0 366.103142-163.909094 366.103142-366.104165C910.334217 309.806975 746.426147 145.897881 544.231075 145.897881L544.231075 145.897881zM544.231075 832.340889c-176.916339 0-320.338842-143.422504-320.338842-320.342935 0-176.916339 143.422504-320.334749 320.338842-320.334749 176.919409 0 320.342935 143.41841 320.342935 320.334749C864.574011 688.918385 721.150484 832.340889 544.231075 832.340889L544.231075 832.340889zM544.231075 832.340889" p-id="1396"></path></svg>