<?xml version="1.0" standalone="no"?><!DOCTYPE svg PUBLIC "-//W3C//DTD SVG 1.1//EN" "http://www.w3.org/Graphics/SVG/1.1/DTD/svg11.dtd"><svg t="1642487553174" class="icon" viewBox="0 0 1024 1024" version="1.1" xmlns="http://www.w3.org/2000/svg" p-id="5433" xmlns:xlink="http://www.w3.org/1999/xlink" width="200" height="200"><defs><style type="text/css"></style></defs><path d="M59.798309 954.587429m27.428571 0l786.285714 0q27.428571 0 27.428572 27.428571l0 0q0 27.428571-27.428572 27.428571l-786.285714 0q-27.428571 0-27.428571-27.428571l0 0q0-27.428571 27.428571-27.428571Z" fill="#5ED7BC" p-id="5434"></path><path d="M397.297737 731.245714l24.850286 48.914286-246.582857 125.257143a45.714286 45.714286 0 0 1-66.084572-46.262857L142.815451 584.594286l54.454858 6.619428-31.286858 257.536 231.314286-117.485714z" fill="#0069F6" p-id="5435"></path><path d="M413.480594 702.537143l340.864-486.820572a45.714286 45.714286 0 0 0-11.227428-63.652571l-119.826286-83.931429a45.714286 45.714286 0 0 0-63.670857 11.245715L218.756023 566.180571l194.724571 136.356572zM142.358309 579.657143L514.692023 47.908571a100.571429 100.571429 0 0 1 140.068571-24.685714l119.826286 83.894857a100.571429 100.571429 0 0 1 24.685714 140.068572l-372.333714 531.748571L142.358309 579.657143z" fill="#0069F6" p-id="5436"></path></svg>