<?xml version="1.0" standalone="no"?><!DOCTYPE svg PUBLIC "-//W3C//DTD SVG 1.1//EN" "http://www.w3.org/Graphics/SVG/1.1/DTD/svg11.dtd"><svg t="1642682757319" class="icon" viewBox="0 0 1045 1024" version="1.1" xmlns="http://www.w3.org/2000/svg" p-id="9698" xmlns:xlink="http://www.w3.org/1999/xlink" width="204.1015625" height="200"><defs><style type="text/css"></style></defs><path d="M455.45238 216.800128a108.400064 108.400064 0 1 0-108.400064-108.400064 108.400064 108.400064 0 0 0 108.400064 108.400064z m-120.444516 457.689159a1373.067477 1373.067477 0 0 0-192.711225-84.311161c-12.044452 0-24.088903 0-24.088903 12.044452-12.044452 60.222258-84.311161 289.066837-108.400064 361.333546 0 12.044452 0 24.088903 12.044452 24.088903h36.133355c12.044452 0 12.044452 0 24.088903-12.044451 24.088903-60.222258 96.355612-252.933483 96.355612-252.933483a151.76009 151.76009 0 0 1 132.488967 132.488967 348.08465 348.08465 0 0 1-36.133354 108.400064 44.564471 44.564471 0 0 0 12.044451 36.133355h60.222258c12.044452 0 12.044452 0 24.088903-12.044452a425.16914 425.16914 0 0 0 60.222258-132.488967 293.884618 293.884618 0 0 0-96.355613-180.666773z m686.533739 277.022386l-192.711225-361.333547c-36.133355-60.222258-96.355612-12.044452-132.488967 36.133355L607.212469 746.755996l-48.177806-36.133354v-24.088903a1347.774129 1347.774129 0 0 0-120.444515-409.511353l-144.533419-72.26671h-24.088903c-48.177806 0-156.57787 24.088903-192.711225 24.088904-12.044452 0-12.044452 0-12.044451 12.044451A1123.74733 1123.74733 0 0 0 4.989892 361.333547c-12.044452 12.044452 0 36.133355 12.044451 48.177806l24.088903 24.088903 84.311161 60.222258c12.044452 0 12.044452 12.044452 12.044452 24.088903v24.088903c0 24.088903 0 24.088903 12.044451 24.088903 36.133355 12.044452 144.533419 72.266709 180.666774 84.311161 12.044452 0 12.044452-12.044452 12.044451-24.088903l252.933483 192.711225-96.355613 168.622321a44.564471 44.564471 0 0 0 12.044452 36.133355h493.822514a32.520019 32.520019 0 0 0 36.133354-28.906684V987.645027c-12.044452-24.088903-12.044452-36.133355-24.088903-36.133354z m-806.978254-638.355933a573.315894 573.315894 0 0 1-36.133355 84.311161c0 12.044452-12.044452 12.044452-24.088903 12.044452h-12.044452l-48.177806-36.133355c12.044452-24.088903 12.044452-48.177806 24.088903-60.222258s12.044452-12.044452 24.088903-12.044451h48.177807c12.044452-12.044452 24.088903 0 24.088903 12.044451zM366.323438 542.00032l24.088903-72.266709c0-12.044452 12.044452-24.088903 24.088904-12.044452a10.840006 10.840006 0 0 1 12.044451 12.044452A1784.98772 1784.98772 0 0 0 486.767954 662.444835c16.862232-12.044452-120.444516-120.444516-120.444516-120.444515z" fill="#F7931E" p-id="9699"></path></svg>