<?xml version="1.0" standalone="no"?><!DOCTYPE svg PUBLIC "-//W3C//DTD SVG 1.1//EN" "http://www.w3.org/Graphics/SVG/1.1/DTD/svg11.dtd"><svg t="1640665621904" class="icon" viewBox="0 0 1024 1024" version="1.1" xmlns="http://www.w3.org/2000/svg" p-id="1570" xmlns:xlink="http://www.w3.org/1999/xlink" width="200" height="200"><defs><style type="text/css"></style></defs><path d="M913.36130259 461.72124814L584.53857178 116.85090897C551.052125 81.73022226 495.84579074 81.15050422 461.62836477 115.55422012L111.58929468 467.49895151C70.63307971 508.67813071 91.12382119 558.37415289 149.19410992 558.00411743L248.31487961 557.37250958 219.02617148 528.27880576 219.02617148 846.39881088C219.02617148 894.60180178 257.87732825 933.73136145 305.93353797 933.73136145L411.46956879 933.73136145 411.46956879 875.54278951 305.93353797 875.54278951C290.12127404 875.54278951 277.23257751 862.5617345 277.23257751 846.39881088L277.23257751 528.27880576C277.23257751 512.13800916 264.0892926 499.08223859 247.94386938 499.18511593L148.8230997 499.81673862C144.65064473 499.84331674 141.9492695 499.40402209 140.99424914 499.00260803 142.84311881 499.77971661 145.40078297 502.10714249 147.01759583 506.02836844 148.61075486 509.89224988 148.45094004 513.23153223 147.74671284 514.97509463 148.17842857 513.90622818 149.83280231 511.57532513 152.86531479 508.52630267L502.90438407 156.58157129C514.02561716 145.39979337 531.5219896 145.58352404 542.40581253 156.99850656L871.22855817 501.86884573C874.12640766 504.90812222 875.69162158 507.23886542 876.10711737 508.35640652 875.55374343 506.86800103 875.47649829 503.92927417 876.88720791 500.53245779 878.32615268 497.06764868 880.568944 494.96084448 882.15378253 494.25523465 881.18169849 494.68802731 878.53798831 495.16684637 874.44829168 495.19290045L874.81930191 553.38029328C932.41730322 553.01326944 953.04577783 503.34245676 913.36130259 461.72124814ZM728.07763077 933.73136145C776.08433774 933.73136145 814.98499808 894.56528817 814.98499808 846.39881088L814.98499808 524.85215325 786.06729934 553.94584308 874.81930191 553.38029328 874.44829168 495.19290045 785.69628913 495.75844944C769.69575609 495.86041052 756.77859121 508.8561875 756.77859121 524.85215325L756.77859121 846.39881088C756.77859121 862.52082746 743.84485706 875.54278951 728.07763077 875.54278951L622.54160078 875.54278951 622.54160078 933.73136145 728.07763077 933.73136145ZM570.07549708 642.83631952C570.15223301 642.83631952 570.19962719 933.86046756 570.19962719 933.86046756L628.40603406 933.86046756 628.40603406 642.69765613C628.40603406 610.65990174 602.21253547 584.64774841 570.07549708 584.64774841L453.91093042 584.64774841C421.78612558 584.64774841 395.58037942 610.58578357 395.58037942 642.69765613L453.78680029 642.69765613C453.78680029 642.85291766 570.07549708 642.83631952 570.07549708 642.83631952ZM453.78680029 642.69765613L395.58037942 642.69765613 395.58037942 933.86046756 453.78680029 933.86046756 453.78680029 642.69765613Z" p-id="1571"></path></svg>