<?xml version="1.0" standalone="no"?><!DOCTYPE svg PUBLIC "-//W3C//DTD SVG 1.1//EN" "http://www.w3.org/Graphics/SVG/1.1/DTD/svg11.dtd"><svg t="1642487903290" class="icon" viewBox="0 0 1024 1024" version="1.1" xmlns="http://www.w3.org/2000/svg" p-id="16957" xmlns:xlink="http://www.w3.org/1999/xlink" width="200" height="200"><defs><style type="text/css"></style></defs><path d="M528 304m-208 0a208 208 0 1 0 416 0 208 208 0 1 0-416 0Z" p-id="16958"></path><path d="M632.64 576a421.44 421.44 0 0 0-111.36-14.4c-358.4 0-369.28 384-369.28 384H614.4A256 256 0 0 1 632.64 576z" p-id="16959"></path><path d="M800 576a192 192 0 1 0 192 192 192 192 0 0 0-192-192z m-24.32 316.16h-92.8l-2.56-96 176.32-174.4 96 94.08z" p-id="16960"></path><path d="M856.64 696.32L732.8 819.2l0.64 21.76 20.8-0.32 123.84-122.88-21.44-21.44z" p-id="16961"></path></svg>