<?xml version="1.0" standalone="no"?><!DOCTYPE svg PUBLIC "-//W3C//DTD SVG 1.1//EN" "http://www.w3.org/Graphics/SVG/1.1/DTD/svg11.dtd"><svg t="1640665654590" class="icon" viewBox="0 0 1024 1024" version="1.1" xmlns="http://www.w3.org/2000/svg" p-id="2004" xmlns:xlink="http://www.w3.org/1999/xlink" width="200" height="200"><defs><style type="text/css"></style></defs><path d="M941.50824219 863.89090906c-0.25454531-3.6-0.77575781-9.06666656-1.70909063-16.18181812-1.73333344-13.2727275-4.32727312-27.98787844-7.96363687-43.79393907-10.38787875-45.11515125-27.12727312-90.25454531-51.72121125-132.59394-64.61818219-111.18787875-170.41212094-182.16969656-323.34545531-193.70909062 89.89090875-20.4727275 156.95757563-100.82424281 156.95757656-196.82424281 0-111.49090875-90.47272688-201.87878812-202.07272782-201.87878719-111.6 0-202.07272688 90.38787844-202.07272687 201.87878719 0 96.01212094 67.07878781 176.35151531 156.96969656 196.83636375-152.93333344 11.53939406-258.72727313 82.54545469-323.35757531 193.75757625-24.59393906 42.33939375-41.33333344 87.49090875-51.73333406 132.61818187-3.63636375 15.80606063-6.24242437 30.53333344-7.97575688 43.80606-0.95757563 7.35757594-1.49090906 12.94545469-1.7212125 16.53333375-5.87878781 45.03030281 27.19999969 82.66666688 72.93333375 82.66666688h713.89090875c45.96363656 0 79.74545438-38.03636344 72.92121188-83.11515188zM363.47187875 280.78787844c0-81.76969688 66.33939375-148.048485 148.18181813-148.04848406 81.84242438 0 148.18181813 66.27878812 148.18181812 148.04848406S593.48400031 428.83636344 511.65369688 428.83636344c-81.83030344 0-148.18181813-66.27878812-148.18181813-148.048485z m505.13939437 612.38787937H154.7082425c-13.345455 0-21.36969656-9.24848531-19.45454531-22.32727312l0.18181781-1.21212094 0.06060656-1.22424281c0.02424281-0.40000031 0.09696937-1.46666625 0.25454532-3.151515 0.26666625-2.98181813 0.65454563-6.49696969 1.17575718-10.49697 1.51515188-11.59999969 3.80606062-24.61818188 7.04242407-38.67878719 9.26060625-40.19393906 24.145455-80.36363625 45.83030343-117.6727275 61.41818156-105.70909125 164.18181844-168.63030281 321.85454531-168.63030281 157.68484875 0 260.43636375 62.90909063 321.85454532 168.58181812 21.6727275 37.28484844 36.55757531 77.44242469 45.8181825 117.63636375 3.23636344 14.04848531 5.53939406 27.05454562 7.04242406 38.66666625 0.5212125 4.00000031 0.90909094 7.51515187 1.16363625 10.49697 0.15757594 1.68484875 0.23030344 2.73939375 0.25454531 3.151515l0.08484844 1.56363657 0.26666625 1.53939375c2.15757562 12.41212125-6.01212094 21.75757594-19.52727188 21.75757593z m0 0" p-id="2005"></path></svg>